<svg width="42" height="42" viewBox="0 0 42 42" fill="none" xmlns="http://www.w3.org/2000/svg">
<g id="calendar-outline 1">
<path id="Vector" d="M34.125 6.5625H7.875C5.70038 6.5625 3.9375 8.32538 3.9375 10.5V34.125C3.9375 36.2996 5.70038 38.0625 7.875 38.0625H34.125C36.2996 38.0625 38.0625 36.2996 38.0625 34.125V10.5C38.0625 8.32538 36.2996 6.5625 34.125 6.5625Z" stroke="white" stroke-width="1.94258" stroke-linejoin="round"/>
<path id="Vector_2" d="M24.2812 21C25.3686 21 26.25 20.1186 26.25 19.0312C26.25 17.9439 25.3686 17.0625 24.2812 17.0625C23.1939 17.0625 22.3125 17.9439 22.3125 19.0312C22.3125 20.1186 23.1939 21 24.2812 21Z" fill="white"/>
<path id="Vector_3" d="M30.8437 21C31.9311 21 32.8125 20.1186 32.8125 19.0312C32.8125 17.9439 31.9311 17.0625 30.8437 17.0625C29.7564 17.0625 28.875 17.9439 28.875 19.0312C28.875 20.1186 29.7564 21 30.8437 21Z" fill="white"/>
<path id="Vector_4" d="M24.2812 27.5625C25.3686 27.5625 26.25 26.6811 26.25 25.5937C26.25 24.5064 25.3686 23.625 24.2812 23.625C23.1939 23.625 22.3125 24.5064 22.3125 25.5937C22.3125 26.6811 23.1939 27.5625 24.2812 27.5625Z" fill="white"/>
<path id="Vector_5" d="M30.8437 27.5625C31.9311 27.5625 32.8125 26.6811 32.8125 25.5937C32.8125 24.5064 31.9311 23.625 30.8437 23.625C29.7564 23.625 28.875 24.5064 28.875 25.5937C28.875 26.6811 29.7564 27.5625 30.8437 27.5625Z" fill="white"/>
<path id="Vector_6" d="M11.1562 27.5625C12.2436 27.5625 13.125 26.6811 13.125 25.5937C13.125 24.5064 12.2436 23.625 11.1562 23.625C10.0689 23.625 9.1875 24.5064 9.1875 25.5937C9.1875 26.6811 10.0689 27.5625 11.1562 27.5625Z" fill="white"/>
<path id="Vector_7" d="M17.7187 27.5625C18.8061 27.5625 19.6875 26.6811 19.6875 25.5937C19.6875 24.5064 18.8061 23.625 17.7187 23.625C16.6314 23.625 15.75 24.5064 15.75 25.5937C15.75 26.6811 16.6314 27.5625 17.7187 27.5625Z" fill="white"/>
<path id="Vector_8" d="M11.1562 34.125C12.2436 34.125 13.125 33.2436 13.125 32.1562C13.125 31.0689 12.2436 30.1875 11.1562 30.1875C10.0689 30.1875 9.1875 31.0689 9.1875 32.1562C9.1875 33.2436 10.0689 34.125 11.1562 34.125Z" fill="white"/>
<path id="Vector_9" d="M17.7187 34.125C18.8061 34.125 19.6875 33.2436 19.6875 32.1562C19.6875 31.0689 18.8061 30.1875 17.7187 30.1875C16.6314 30.1875 15.75 31.0689 15.75 32.1562C15.75 33.2436 16.6314 34.125 17.7187 34.125Z" fill="white"/>
<path id="Vector_10" d="M24.2812 34.125C25.3686 34.125 26.25 33.2436 26.25 32.1562C26.25 31.0689 25.3686 30.1875 24.2812 30.1875C23.1939 30.1875 22.3125 31.0689 22.3125 32.1562C22.3125 33.2436 23.1939 34.125 24.2812 34.125Z" fill="white"/>
<path id="Vector_11" d="M10.5 3.9375V6.5625M31.5 3.9375V6.5625" stroke="white" stroke-width="1.94258" stroke-linecap="round" stroke-linejoin="round"/>
<path id="Vector_12" d="M38.0625 13.125H3.9375" stroke="white" stroke-width="1.94258" stroke-linejoin="round"/>
</g>
</svg>
