<?xml version="1.0" standalone="no"?>
<!DOCTYPE svg PUBLIC "-//W3C//DTD SVG 20010904//EN"
 "http://www.w3.org/TR/2001/REC-SVG-20010904/DTD/svg10.dtd">
<svg version="1.0" xmlns="http://www.w3.org/2000/svg"
 width="512.000000pt" height="512.000000pt" viewBox="0 0 512.000000 512.000000"
 preserveAspectRatio="xMidYMid meet">

<g transform="translate(0.000000,512.000000) scale(0.100000,-0.100000)"
fill="#ffd2b5" stroke="none">
<path d="M2240 5114 c-276 -50 -478 -231 -557 -499 -16 -55 -18 -145 -21
-1190 l-3 -1130 -52 -35 c-85 -57 -248 -226 -312 -325 -148 -225 -215 -473
-202 -748 12 -248 93 -481 239 -679 67 -92 226 -241 322 -303 501 -322 1145
-255 1563 163 119 119 223 278 283 432 72 187 99 450 66 640 -35 196 -107 374
-217 530 -61 87 -212 240 -286 290 l-52 35 -3 1130 c-3 1044 -5 1135 -21 1190
-69 233 -237 407 -461 477 -59 18 -233 32 -286 22z m254 -214 c137 -47 248
-158 301 -300 19 -54 20 -81 25 -1225 3 -643 9 -1176 14 -1183 4 -8 40 -34 80
-59 101 -65 269 -238 328 -339 103 -177 148 -339 149 -544 1 -186 -32 -324
-117 -490 -318 -617 -1148 -760 -1654 -284 -441 414 -450 1095 -21 1522 44 43
116 102 159 131 44 28 84 63 91 77 8 18 11 328 11 1162 0 1238 -2 1189 56
1304 34 67 135 168 199 200 46 23 104 41 165 52 45 8 159 -5 214 -24z"/>
<path d="M2314 3473 c-12 -2 -32 -15 -45 -29 l-24 -26 -3 -744 c-2 -636 -5
-744 -17 -744 -41 0 -181 -56 -246 -98 -463 -302 -370 -1005 157 -1178 78 -25
103 -29 204 -29 127 1 192 16 294 67 235 118 377 364 363 623 -16 285 -206
519 -487 601 l-75 22 -5 743 c-3 409 -9 750 -14 758 -7 11 -70 43 -78 40 -2
-1 -13 -4 -24 -6z m170 -1749 c249 -85 380 -353 293 -601 -71 -204 -288 -334
-506 -303 -131 18 -268 110 -335 224 -157 268 -5 623 297 691 74 17 182 12
251 -11z"/>
<path d="M3276 4434 c-47 -48 -32 -124 29 -150 43 -18 613 -21 663 -3 65 22
83 105 34 152 l-28 27 -336 0 -335 0 -27 -26z"/>
<path d="M3423 3975 c-38 -16 -53 -42 -53 -90 0 -25 8 -43 25 -60 24 -25 24
-25 235 -25 132 0 219 4 232 11 11 6 26 26 34 45 20 48 -1 99 -50 119 -49 21
-376 21 -423 0z"/>
<path d="M3304 3500 c-32 -13 -54 -50 -54 -91 0 -29 7 -43 31 -63 l31 -26 330
0 330 0 29 29 c47 48 38 116 -21 146 -24 12 -81 15 -342 14 -172 0 -323 -4
-334 -9z"/>
<path d="M3401 3004 c-42 -35 -44 -98 -5 -135 25 -24 27 -24 240 -24 l214 0
25 26 c44 43 32 123 -22 148 -15 7 -98 11 -223 11 l-198 0 -31 -26z"/>
<path d="M3276 2524 c-47 -48 -32 -124 29 -150 43 -18 613 -21 663 -3 64 22
83 105 36 153 l-27 26 -337 0 -337 0 -27 -26z"/>
</g>
</svg>
