<svg width="42" height="42" viewBox="0 0 42 42" fill="none" xmlns="http://www.w3.org/2000/svg">
<g id="thermometer-outline 1">
<path id="Vector" d="M21.0001 9.1875V31.5M25.2427 24.7956C25.1493 24.7365 25.0724 24.6547 25.0191 24.5579C24.9657 24.4611 24.9377 24.3524 24.9376 24.2419V6.5625C24.9376 5.51821 24.5227 4.51669 23.7843 3.77827C23.0459 3.03984 22.0444 2.625 21.0001 2.625C19.9558 2.625 18.9543 3.03984 18.2158 3.77827C17.4774 4.51669 17.0626 5.51821 17.0626 6.5625V24.2419C17.0624 24.3522 17.0344 24.4607 16.9812 24.5573C16.928 24.6539 16.8513 24.7356 16.7582 24.7948C15.5919 25.5545 14.6441 26.6054 14.0083 27.8437C13.3726 29.0819 13.0709 30.4647 13.1333 31.8552C13.2271 33.9102 14.1214 35.8468 15.6247 37.251C17.128 38.6551 19.1211 39.4153 21.1777 39.3689C23.2343 39.3225 25.1911 38.4732 26.6295 37.0026C28.068 35.5321 28.874 33.5571 28.8751 31.5C28.8756 30.1684 28.5437 28.8578 27.9094 27.687C27.2751 26.5162 26.3585 25.5224 25.2427 24.7956Z" stroke="#FFD2B5" stroke-width="2.625" stroke-miterlimit="10" stroke-linecap="round"/>
<path id="Vector_2" d="M21 35.4375C23.1746 35.4375 24.9375 33.6746 24.9375 31.5C24.9375 29.3254 23.1746 27.5625 21 27.5625C18.8254 27.5625 17.0625 29.3254 17.0625 31.5C17.0625 33.6746 18.8254 35.4375 21 35.4375Z" fill="#FFD2B5"/>
</g>
</svg>
